<?xml version="1.0" encoding="UTF-8"?>
<svg width="64px" height="64px" viewBox="0 0 64 64" version="1.1" xmlns="http://www.w3.org/2000/svg" xmlns:xlink="http://www.w3.org/1999/xlink">
    <title>ship2</title>
    <defs>
        <filter x="-18.8%" y="-18.8%" width="137.5%" height="137.5%" filterUnits="objectBoundingBox" id="filter-1">
            <feOffset dx="0" dy="2" in="SourceAlpha" result="shadowOffsetOuter1"></feOffset>
            <feGaussianBlur stdDeviation="2" in="shadowOffsetOuter1" result="shadowBlurOuter1"></feGaussianBlur>
            <feColorMatrix values="0 0 0 0 1   0 0 0 0 1   0 0 0 0 1  0 0 0 0.5 0" type="matrix" in="shadowBlurOuter1" result="shadowMatrixOuter1"></feColorMatrix>
            <feMerge>
                <feMergeNode in="shadowMatrixOuter1"></feMergeNode>
                <feMergeNode in="SourceGraphic"></feMergeNode>
            </feMerge>
        </filter>
    </defs>
    <g id="ship2" stroke="none" stroke-width="1" fill="none" fill-rule="evenodd">
        <g id="famous-character-star-wars" filter="url(#filter-1)" fill="#FFFFFF" fill-rule="nonzero">
            <path d="M32,16 C23.163444,16 16,23.163444 16,32 C16,40.836556 23.163444,48 32,48 C40.836556,48 48,40.836556 48,32 C48,23.163444 40.836556,16 32,16 Z M32,18.6666667 C39.3637967,18.6666667 45.3333333,24.6362033 45.3333333,32 C45.3333333,39.3637967 39.3637967,45.3333333 32,45.3333333 C24.6362033,45.3333333 18.6666667,39.3637967 18.6666667,32 C18.6666667,24.6362033 24.6362033,18.6666667 32,18.6666667 Z" id="Oval"></path>
            <path d="M32,21.3333333 C26.1089627,21.3333333 21.3333333,26.1089627 21.3333333,32 C21.3333333,37.8910373 26.1089627,42.6666667 32,42.6666667 C37.8910373,42.6666667 42.6666667,37.8910373 42.6666667,32 C42.6666667,26.1089627 37.8910373,21.3333333 32,21.3333333 Z M32,24 C36.418278,24 40,27.581722 40,32 C40,36.418278 36.418278,40 32,40 C27.581722,40 24,36.418278 24,32 C24,27.581722 27.581722,24 32,24 Z" id="Oval"></path>
            <path d="M32,21.3333333 C32.6545597,21.3333333 33.1989557,21.8050004 33.3118515,22.4269983 L33.3333333,22.6666667 L33.3333333,28 C33.3333333,28.7363797 32.7363797,29.3333333 32,29.3333333 C31.3454403,29.3333333 30.8010443,28.8616662 30.6881485,28.2396684 L30.6666667,28 L30.6666667,22.6666667 C30.6666667,21.930287 31.2636203,21.3333333 32,21.3333333 Z" id="Path"></path>
            <path d="M27.8696072,32.8451414 C28.5074181,32.4771028 29.3228201,32.6957964 29.6908586,33.3336072 C30.018004,33.9005502 29.8815585,34.6078121 29.3992436,35.0164674 L29.2023928,35.1548586 L24.5810594,37.8215253 C23.9432486,38.1895639 23.1278466,37.9708702 22.759808,37.3330594 C22.4326626,36.7661165 22.5691081,36.0588545 23.0514231,35.6501993 L23.2482739,35.511808 L27.8696072,32.8451414 Z" id="Path"></path>
            <path d="M34.3091414,33.3336072 C34.6362867,32.7666643 35.3169045,32.5308757 35.912069,32.7439627 L36.1303928,32.8451414 L40.7517261,35.511808 C41.3895369,35.8798466 41.6082305,36.6952486 41.240192,37.3330594 C40.9130466,37.9000024 40.2324288,38.135791 39.6372644,37.9227039 L39.4189406,37.8215253 L34.7976072,35.1548586 C34.1597964,34.7868201 33.9411028,33.9714181 34.3091414,33.3336072 Z" id="Path"></path>
            <path d="M19.5718827,22.3105834 C20.270753,22.078559 21.0253922,22.4570124 21.2574166,23.1558827 C21.4636605,23.7771007 21.1875516,24.4423831 20.6328089,24.7455124 L20.4121173,24.8414166 L7.08678397,29.2654166 C6.38791367,29.497441 5.63327443,29.1189876 5.40125004,28.4201173 C5.19500615,27.7988993 5.47111507,27.1336169 6.02585778,26.8304876 L6.24654936,26.7345834 L19.5718827,22.3105834 Z" id="Path"></path>
            <path d="M6.74494414,34.6687344 L6.9828698,34.7047034 L19.4468698,37.74737 C20.1622424,37.9220042 20.6005975,38.6434972 20.4259633,39.3588698 C20.2707329,39.9947565 19.6834165,40.4117653 19.0523892,40.3739322 L18.8144635,40.3379633 L6.35046353,37.2952966 C5.63509096,37.1206625 5.19673587,36.3991694 5.37137004,35.6837969 C5.52660041,35.0479101 6.11391679,34.6309014 6.74494414,34.6687344 Z" id="Path"></path>
            <path d="M15.8533333,-2.98504806e-07 L12.64,-2.98504806e-07 C11.8296684,-2.98504806e-07 11.0636549,0.369568425 10.5580998,1.00266802 L1.46027021,12.3722875 C0.515637071,13.5535868 0.000803571607,15.0205091 -1.31808872e-06,16.5326244 L-1.31808872e-06,47.4666667 C-0.000709717138,48.9804441 0.514209034,50.4499606 1.46000015,51.6327082 L10.5591276,62.9986174 C11.063655,63.6304316 11.8296685,63.9999997 12.64,63.9999997 L15.8533333,63.9999997 C16.884127,63.9999997 17.8228757,63.4065615 18.2641904,62.4748972 C18.7056196,61.5429912 18.5702049,60.4401029 17.9164438,59.6426664 L8.90383174,48.6302136 C8.31912091,47.9154687 7.99970943,47.0201276 7.99999868,46.0964185 L7.99999868,17.904 C7.99970943,16.9798724 8.31912091,16.0845313 8.90399993,15.3695809 L17.9171651,4.3564531 C18.5702049,3.55989714 18.7056196,2.45700877 18.2641904,1.52510278 C17.8228758,0.593438522 16.884127,-2.98504806e-07 15.8533333,-2.98504806e-07 Z M15.8542228,2.66666637 L6.84016826,13.6808802 C5.86520188,14.8726696 5.33284961,16.3649042 5.33333281,17.9044185 L5.33333275,46.096 C5.33284961,47.6350958 5.86520188,49.1273304 6.84000007,50.3189142 L15.8533333,61.333333 L12.6373333,61.3306667 L3.54220577,49.9667159 C2.97519174,49.2576431 2.66624037,48.3759328 2.66666506,47.4672911 L2.66666506,16.5333333 C2.66714827,15.6267725 2.9760485,14.7466188 3.54266648,14.0380416 L12.64,2.66666637 L15.8542228,2.66666637 Z" id="Path"></path>
            <path d="M42.7425834,23.1558827 C42.9488273,22.5346646 43.5680014,22.1666155 44.1938884,22.2554543 L44.4281173,22.3105834 L57.7534506,26.7345834 C58.4523209,26.9666078 58.8307743,27.721247 58.59875,28.4201173 C58.3925061,29.0413354 57.7733319,29.4093845 57.1474449,29.3205457 L56.913216,29.2654166 L43.5878827,24.8414166 C42.8890124,24.6093922 42.510559,23.854753 42.7425834,23.1558827 Z" id="Path"></path>
            <path d="M57.0171302,34.7047034 C57.7325028,34.5300692 58.4539958,34.9684243 58.62863,35.6837969 C58.7838603,36.3196836 58.4547535,36.9604062 57.8772732,37.2175898 L57.6495365,37.2952966 L45.1855365,40.3379633 C44.4701639,40.5125975 43.7486709,40.0742424 43.5740367,39.3588698 C43.4188063,38.7229831 43.7479132,38.0822604 44.3253934,37.8250769 L44.5531302,37.74737 L57.0171302,34.7047034 Z" id="Path"></path>
            <path d="M51.36,-2.98504806e-07 L48.1466667,-2.98504806e-07 C47.115873,-2.98504806e-07 46.1771242,0.593438522 45.7358096,1.52510278 C45.2943804,2.45700877 45.4297951,3.55989714 46.0835562,4.35733363 L55.0961683,15.3697864 C55.6808791,16.0845313 56.0002904,16.9798723 56.0000001,17.9035809 L56,46.096 C56.0002904,47.0201277 55.6808791,47.9154687 55.0960001,48.6304191 L46.0828349,59.6435469 C45.4297951,60.4401029 45.2943804,61.5429912 45.7358096,62.4748972 C46.1771243,63.4065615 47.115873,63.9999997 48.1466667,63.9999997 L51.36,63.9999997 C52.1703315,63.9999997 52.936345,63.6304316 53.4419002,62.997332 L62.5395391,51.6332841 C63.485791,50.4499606 64.0007097,48.9804441 64.0000012,47.4660422 L64.0000012,16.5333333 C63.9991964,15.0205091 63.4843629,13.5535868 62.5399998,12.3726251 L53.4410631,1.00162084 C52.9363451,0.369568425 52.1703316,-2.98504806e-07 51.36,-2.98504806e-07 Z M51.3580998,2.66666531 L60.4576035,14.0383792 C61.0239515,14.7466188 61.3328517,15.6267725 61.3333348,16.5340422 L61.3333348,47.4666667 C61.3337596,48.3759328 61.0248083,49.2576431 60.4573335,49.9672918 L51.36,61.333332 L48.1466667,61.3306667 L57.1598317,50.3191198 C58.1347984,49.1273302 58.6671505,47.6350952 58.6666666,46.0955809 L58.6666667,17.904 C58.6671505,16.3649048 58.1347984,14.8726698 57.1599999,13.6810858 L48.1466667,2.66666531 L51.3580998,2.66666531 Z" id="Path"></path>
        </g>
    </g>
</svg>