<?xml version="1.0" encoding="UTF-8"?>
<svg width="64px" height="64px" viewBox="0 0 64 64" version="1.1" xmlns="http://www.w3.org/2000/svg" xmlns:xlink="http://www.w3.org/1999/xlink">
    <title>Artboard</title>
    <g id="Artboard" stroke="none" stroke-width="1" fill="none" fill-rule="evenodd">
        <g id="space-rocket-2" transform="translate(2.000000, 0.000000)" fill="#FFFFFF" fill-rule="nonzero">
            <path d="M30.4843625,16.0026275 C32.5840786,16.099408 34.5413244,17.0925335 35.8593165,18.7299312 C36.5519195,19.5903815 36.4158525,20.8493801 35.5554021,21.5419831 C34.6949518,22.2345862 33.4359533,22.0985191 32.7433502,21.2380688 C32.1442629,20.4937971 31.2546057,20.0423765 30.3001893,19.9983853 C29.3457729,19.9543942 28.4183621,20.3220622 27.7533502,21.0080688 C26.9845318,21.801159 25.7183547,21.8208352 24.9252645,21.0520169 C24.1321743,20.2831985 24.1124981,19.0170214 24.8813165,18.2239312 C26.2224239,16.8404846 28.0486047,16.0455222 29.960971,15.9971813 L30.4843625,16.0026275 Z" id="Path"></path>
            <path d="M30.3333333,46 C31.3458554,46 32.1826426,46.7524104 32.3150757,47.7286118 L32.3333333,48 L32.3333333,62 C32.3333333,63.1045695 31.4379028,64 30.3333333,64 C29.3208113,64 28.4840241,63.2475896 28.351591,62.2713882 L28.3333333,62 L28.3333333,48 C28.3333333,46.8954305 29.2287638,46 30.3333333,46 Z" id="Path"></path>
            <path d="M30.3333333,0 C22.998698,0 16.3333333,11.2692235 16.3333333,20 L18.3355971,62.0951303 C18.3863769,63.1615072 19.2657481,64 20.3333333,64 L40.3333333,64 C41.4009186,64 42.2802898,63.1615072 42.3310696,62.0951303 L44.3310702,20.0951303 C44.3333333,11.2692235 37.6679687,0 30.3333333,0 Z M30.6954273,4.01887967 C35.1807067,4.48197853 40.3333333,13.3681183 40.3333333,20 L38.424,60 L22.24,60 L20.3310696,19.9048697 C20.3333333,13.1888783 25.7682441,4 30.3333333,4 L30.6954273,4.01887967 Z" id="Path"></path>
            <path d="M40.4628648,26.3629699 C41.1241154,25.6072761 42.2284658,25.4689754 43.0483322,25.9965633 L43.2850301,26.1748648 L56.92,38.1057969 C58.9443148,39.8778422 60.1630463,42.3847336 60.3167848,45.0548707 L60.3333333,45.6293333 L60.3333333,54 C60.3333333,57.1756373 57.8662358,59.7750531 54.7441302,59.9861578 L54.3333333,60 L40.5226667,60 C39.4180972,60 38.5226667,59.1045695 38.5226667,58 C38.5226667,56.987478 39.275077,56.1506908 40.2512785,56.0182576 L40.5226667,56 L54.3333333,56 C55.3458554,56 56.1826426,55.2475896 56.3150757,54.2713882 L56.3333333,54 L56.3333333,45.6295364 C56.3331737,44.0572527 55.7162342,42.5545526 54.6265727,41.4386511 L54.2856366,41.1158018 L40.6509699,29.1851352 C39.8197068,28.4577595 39.7354892,27.1942331 40.4628648,26.3629699 Z" id="Path"></path>
            <path d="M17.3816366,26.1748648 C18.2128998,25.4474892 19.4764262,25.5317068 20.2038018,26.3629699 C20.8650524,27.1186638 20.8555648,28.2315999 20.2238346,28.9741946 L20.0156967,29.1851352 L6.38133332,41.1155364 C5.19829223,42.1511473 4.47381809,43.605059 4.35174079,45.1601032 L4.33333333,45.6293333 L4.33333333,54 C4.33333333,54.530433 4.54404701,55.0391408 4.91911977,55.4142136 C5.21917798,55.7142718 5.60476263,55.9091402 6.01857584,55.9750852 L6.33333333,56 L20.144,56 C21.2485695,56 22.144,56.8954305 22.144,58 C22.144,59.012522 21.3915896,59.8493092 20.4153882,59.9817424 L20.144,60 L6.33333333,60 C4.74203439,60 3.21591092,59.367859 2.09069265,58.2426407 C1.09049863,57.2424467 0.479896494,55.925488 0.356555205,54.5275585 L0.333333333,54 L0.333333333,45.6291303 C0.333606505,42.9387781 1.41740191,40.3706663 3.3255564,38.4963444 L3.74696994,38.1055315 L17.3816366,26.1748648 Z" id="Path"></path>
        </g>
    </g>
</svg>